<mxfile host="app.diagrams.net" agent="Mozilla/5.0 (Windows NT 10.0; Win64; x64) AppleWebKit/537.36 (KHTML, like Gecko) Chrome/128.0.0.0 Safari/537.36 Edg/128.0.0.0" version="24.7.8">
  <diagram name="Page-1" id="vV6NU0P4ZQp-_WoSECo8">
    <mxGraphModel dx="1426" dy="757" grid="1" gridSize="10" guides="1" tooltips="1" connect="1" arrows="1" fold="1" page="1" pageScale="1" pageWidth="850" pageHeight="1100" math="0" shadow="0">
      <root>
        <mxCell id="0" />
        <mxCell id="1" parent="0" />
        <mxCell id="8pfaWsYJm06sZ0pLLKBw-6" style="edgeStyle=orthogonalEdgeStyle;rounded=0;orthogonalLoop=1;jettySize=auto;html=1;entryX=0.5;entryY=0;entryDx=0;entryDy=0;" edge="1" parent="1" source="8pfaWsYJm06sZ0pLLKBw-2" target="8pfaWsYJm06sZ0pLLKBw-3">
          <mxGeometry relative="1" as="geometry" />
        </mxCell>
        <mxCell id="8pfaWsYJm06sZ0pLLKBw-2" value="Start" style="ellipse;whiteSpace=wrap;html=1;" vertex="1" parent="1">
          <mxGeometry x="380" width="90" height="40" as="geometry" />
        </mxCell>
        <mxCell id="8pfaWsYJm06sZ0pLLKBw-7" style="edgeStyle=orthogonalEdgeStyle;rounded=0;orthogonalLoop=1;jettySize=auto;html=1;entryX=0.5;entryY=0;entryDx=0;entryDy=0;" edge="1" parent="1" source="8pfaWsYJm06sZ0pLLKBw-3" target="8pfaWsYJm06sZ0pLLKBw-5">
          <mxGeometry relative="1" as="geometry" />
        </mxCell>
        <mxCell id="8pfaWsYJm06sZ0pLLKBw-3" value="sum = 0,&amp;nbsp;&lt;span style=&quot;background-color: initial;&quot;&gt;list = [26, 49, 98, 87, 62, 75]&lt;/span&gt;&lt;div&gt;&lt;span style=&quot;background-color: initial;&quot;&gt;&lt;br&gt;&lt;/span&gt;&lt;/div&gt;" style="rounded=0;whiteSpace=wrap;html=1;" vertex="1" parent="1">
          <mxGeometry x="360" y="80" width="130" height="40" as="geometry" />
        </mxCell>
        <mxCell id="8pfaWsYJm06sZ0pLLKBw-16" style="edgeStyle=orthogonalEdgeStyle;rounded=0;orthogonalLoop=1;jettySize=auto;html=1;entryX=0.5;entryY=0;entryDx=0;entryDy=0;" edge="1" parent="1" source="8pfaWsYJm06sZ0pLLKBw-5" target="8pfaWsYJm06sZ0pLLKBw-9">
          <mxGeometry relative="1" as="geometry">
            <Array as="points">
              <mxPoint x="345" y="200" />
            </Array>
          </mxGeometry>
        </mxCell>
        <mxCell id="8pfaWsYJm06sZ0pLLKBw-17" style="edgeStyle=orthogonalEdgeStyle;rounded=0;orthogonalLoop=1;jettySize=auto;html=1;" edge="1" parent="1" source="8pfaWsYJm06sZ0pLLKBw-5" target="8pfaWsYJm06sZ0pLLKBw-15">
          <mxGeometry relative="1" as="geometry">
            <Array as="points">
              <mxPoint x="505" y="200" />
            </Array>
          </mxGeometry>
        </mxCell>
        <mxCell id="8pfaWsYJm06sZ0pLLKBw-5" value="Is i%2==0?" style="rhombus;whiteSpace=wrap;html=1;" vertex="1" parent="1">
          <mxGeometry x="370" y="160" width="110" height="80" as="geometry" />
        </mxCell>
        <mxCell id="8pfaWsYJm06sZ0pLLKBw-9" value="&lt;div&gt;&lt;span style=&quot;background-color: initial;&quot;&gt;sum = sum + i&lt;/span&gt;&lt;/div&gt;" style="rounded=0;whiteSpace=wrap;html=1;" vertex="1" parent="1">
          <mxGeometry x="290" y="280" width="110" height="40" as="geometry" />
        </mxCell>
        <mxCell id="8pfaWsYJm06sZ0pLLKBw-11" value="Yes" style="text;html=1;align=center;verticalAlign=middle;resizable=0;points=[];autosize=1;strokeColor=none;fillColor=none;" vertex="1" parent="1">
          <mxGeometry x="310" y="228" width="40" height="30" as="geometry" />
        </mxCell>
        <mxCell id="8pfaWsYJm06sZ0pLLKBw-12" value="No" style="text;html=1;align=center;verticalAlign=middle;resizable=0;points=[];autosize=1;strokeColor=none;fillColor=none;" vertex="1" parent="1">
          <mxGeometry x="500" y="228" width="40" height="30" as="geometry" />
        </mxCell>
        <mxCell id="8pfaWsYJm06sZ0pLLKBw-15" value="&lt;div&gt;&lt;span style=&quot;background-color: initial;&quot;&gt;pass&lt;/span&gt;&lt;/div&gt;" style="rounded=0;whiteSpace=wrap;html=1;" vertex="1" parent="1">
          <mxGeometry x="450" y="280" width="110" height="40" as="geometry" />
        </mxCell>
      </root>
    </mxGraphModel>
  </diagram>
</mxfile>
